<svg width="263" height="42" viewBox="0 0 263 42" fill="none" xmlns="http://www.w3.org/2000/svg">
<g clip-path="url(#clip0_227_5671)">
<path d="M235.635 37.5533V42.0013L262.937 14.6714H258.493L235.635 37.5533Z" fill="white"/>
<path d="M232.474 37.5533L209.615 14.6714H205.15L232.474 42.0013V37.5533Z" fill="white"/>
<path d="M253.387 4.87762C253.387 4.89901 253.387 4.92039 253.408 4.96316C253.579 6.39595 251.784 7.70044 250.46 7.20858C249.99 7.0375 249.541 6.82365 249.114 6.63119L256.997 14.5222L248.559 22.9693C248.836 23.2045 249.114 23.4397 249.392 23.6964C249.627 23.5894 249.904 23.6108 250.097 23.8461C250.652 24.4876 251.208 25.1505 251.72 25.8135L263 14.5222L253.387 4.87762Z" fill="white"/>
<path d="M218.801 6.71677C218.566 6.60985 218.352 6.48154 218.181 6.28908C218.053 6.16077 217.925 6.05384 217.797 5.94692C217.775 5.92553 217.775 5.92553 217.775 5.90415C217.754 5.88276 217.733 5.88276 217.711 5.86138C217.498 5.71168 217.263 5.5406 217.028 5.41229C216.536 5.1129 216.045 4.81352 215.575 4.49274C215.468 4.42859 215.383 4.34305 215.276 4.25751L205.043 14.5009L215.831 25.3003C216.579 24.0813 217.647 23.119 218.779 22.2422L211.046 14.5009L218.801 6.71677Z" fill="white"/>
<path d="M250.994 2.5036L242 11.5067L245.012 14.5219L250.994 8.51277L256.997 14.5219L250.994 20.5097L245.012 14.5219L242 17.5158L250.994 26.5189L263 14.5219L250.994 2.5036Z" fill="white"/>
<path d="M217.006 26.5189L226 17.5158L223.009 14.5219L217.006 20.5097L211.003 14.5219L217.006 8.51277L223.009 14.5219L226 11.5067L217.006 2.5036L205 14.5219L217.006 26.5189Z" fill="white"/>
<path d="M237.259 4.17163C237.259 4.17163 239.16 4.04332 242.065 6.73782C242.065 6.73782 241.638 3.93639 237.622 2.82437C237.622 2.82437 238.305 2.33252 241.446 3.57285C241.446 3.57285 239.48 1.28466 236.383 1.54128C236.383 1.54128 236.276 1.26328 237.408 0.878346C237.408 0.878346 235.721 0.343723 234.674 1.32743C234.674 1.32743 234.674 0.258183 234.054 0.0229492C233.435 0.258183 233.435 1.32743 233.435 1.32743C232.409 0.322338 230.722 0.856961 230.722 0.856961C231.854 1.22051 231.747 1.51989 231.747 1.51989C228.671 1.26328 226.684 3.55146 226.684 3.55146C229.824 2.31114 230.508 2.80299 230.508 2.80299C226.492 3.91501 226.064 6.71643 226.064 6.71643C228.97 4.02193 230.871 4.15024 230.871 4.15024C227.539 6.56674 228.414 9.28262 228.414 9.28262L233.947 4.83456L239.737 9.28262C239.715 9.28262 240.591 6.56674 237.259 4.17163Z" fill="white"/>
<path d="M234.011 20.5521L228.414 14.9706L234.011 9.38916L239.608 14.9706L234.011 20.5521Z" fill="white"/>
<path d="M234.011 31.8226L228.414 26.2411L234.011 20.6597L239.608 26.2411L234.011 31.8226Z" fill="white"/>
<path d="M-0.0423394 37.1258C0.107202 37.2114 0.256743 37.2969 0.44901 37.3824C0.641277 37.468 0.833544 37.5321 1.04717 37.5749C1.2608 37.6177 1.47443 37.6818 1.68806 37.7032C1.90169 37.746 2.13669 37.746 2.35032 37.746C2.60667 37.746 2.8203 37.7246 3.03393 37.6818C3.24756 37.6391 3.41847 37.5749 3.58937 37.4894C3.73891 37.4038 3.86709 37.2969 3.95254 37.1472C4.038 36.9975 4.08072 36.8478 4.08072 36.6554C4.08072 36.4843 4.038 36.3346 3.97391 36.2277C3.90982 36.0994 3.803 36.0138 3.65346 35.9069C3.52528 35.8213 3.35438 35.7358 3.16211 35.693C2.96985 35.6289 2.75622 35.5647 2.52122 35.522L1.83761 35.3509C1.0899 35.1798 0.534462 34.8804 0.149928 34.4527C-0.234606 34.0464 -0.405511 33.5332 -0.405511 32.913C-0.405511 32.5922 -0.341421 32.2928 -0.19188 32.0148C-0.0423394 31.7368 0.149928 31.5016 0.406284 31.3091C0.66264 31.1167 0.983085 30.967 1.34626 30.86C1.70943 30.7531 2.11532 30.689 2.54258 30.689C2.79894 30.689 3.0553 30.7104 3.31165 30.7531C3.56801 30.7959 3.82437 30.8387 4.08072 30.9028C4.33708 30.967 4.57207 31.0525 4.7857 31.138C5.02069 31.2236 5.21296 31.3305 5.38387 31.4374L4.80706 32.7205C4.50798 32.5281 4.14481 32.3784 3.73891 32.2501C3.33302 32.1431 2.92712 32.079 2.52122 32.079C2.32895 32.079 2.13669 32.1004 1.96578 32.1431C1.79488 32.1859 1.64534 32.2287 1.4958 32.3142C1.36762 32.3784 1.2608 32.4853 1.17535 32.5922C1.0899 32.6991 1.06854 32.8275 1.06854 32.9772C1.06854 33.2552 1.17535 33.469 1.36762 33.6187C1.58125 33.7898 1.90169 33.9181 2.35032 34.025L3.03393 34.1961C3.37574 34.2816 3.69619 34.3886 3.99527 34.5383C4.29435 34.6666 4.57207 34.8376 4.7857 35.0515C5.02069 35.244 5.1916 35.5006 5.31978 35.7572C5.44795 36.0352 5.51204 36.356 5.51204 36.7195C5.51204 37.1258 5.42659 37.468 5.25569 37.7674C5.08478 38.0668 4.87115 38.3234 4.57207 38.5372C4.29435 38.7511 3.95254 38.9008 3.54665 39.0077C3.14075 39.1146 2.71349 39.1788 2.26487 39.1788C1.98715 39.1788 1.70943 39.1574 1.41035 39.1146C1.13263 39.0719 0.854907 39.0291 0.598551 38.9649C0.342195 38.9008 0.214017 38.7939 -0.0209763 38.7083C-0.255969 38.6228 -0.448237 38.5159 -0.619141 38.4089L-0.0423394 37.1258Z" fill="white"/>
<path d="M9.35775 39.1357C8.99458 39.1357 8.65278 39.093 8.33233 39.0288C8.01189 38.9647 7.7128 38.8577 7.47781 38.708C7.24282 38.5583 7.02919 38.3659 6.87965 38.1306C6.7301 37.8954 6.66602 37.596 6.66602 37.2539C6.66602 36.9331 6.7301 36.6551 6.85828 36.4198C6.98646 36.1846 7.17873 35.9708 7.39236 35.8211C7.62735 35.65 7.90507 35.5431 8.22552 35.4575C8.54596 35.372 8.90913 35.3292 9.29367 35.3292C9.44321 35.3292 9.61411 35.3292 9.80638 35.3506C9.99865 35.3506 10.1909 35.372 10.4045 35.4148V35.3292C10.4045 35.0084 10.2764 34.7946 10.0414 34.6663C9.80638 34.5594 9.48593 34.4952 9.1014 34.4952C8.95186 34.4952 8.80232 34.5166 8.61005 34.538C8.43915 34.5594 8.26824 34.6021 8.07597 34.6449C7.90507 34.6877 7.73417 34.7518 7.56326 34.816C7.39236 34.8801 7.24282 34.9443 7.09328 35.0084L7.26418 33.5756C7.49917 33.4687 7.77689 33.3618 8.14006 33.2763C8.50323 33.1907 8.86641 33.1479 9.2723 33.1479C9.63547 33.1479 9.97728 33.1907 10.2764 33.2763C10.5754 33.3618 10.8532 33.4901 11.0668 33.6612C11.3018 33.8323 11.4727 34.0675 11.6009 34.3455C11.729 34.6235 11.7931 34.9871 11.7931 35.3934V38.6866C11.43 38.8363 11.0454 38.9433 10.5968 39.0074C10.1909 39.093 9.78501 39.1357 9.35775 39.1357ZM10.4045 36.5482C10.2764 36.5054 10.1268 36.484 9.93456 36.4626C9.76365 36.4412 9.59275 36.4198 9.44321 36.4198C9.2723 36.4198 9.1014 36.4412 8.93049 36.4626C8.78095 36.484 8.63141 36.5268 8.50323 36.5909C8.37506 36.6551 8.2896 36.7192 8.22552 36.8262C8.16143 36.9117 8.1187 37.04 8.1187 37.1683C8.1187 37.4249 8.24688 37.6174 8.48187 37.7243C8.71686 37.8312 9.01595 37.874 9.35775 37.874C9.52866 37.874 9.69956 37.8526 9.89183 37.8312C10.0627 37.8099 10.2336 37.7671 10.4045 37.7029V36.5482Z" fill="white"/>
<path d="M16.7493 33.3403H18.1592V38.708C17.967 38.7721 17.7533 38.8363 17.5824 38.879C17.3902 38.9218 17.1979 38.9646 17.0056 39.0073C16.8134 39.0501 16.6211 39.0715 16.4075 39.0929C16.1938 39.1143 15.9802 39.1143 15.7238 39.1143C15.3607 39.1143 15.0189 39.0715 14.7198 39.0073C14.3993 38.9218 14.143 38.7935 13.908 38.6224C13.673 38.4513 13.5021 38.1947 13.3739 37.9167C13.2457 37.6173 13.1816 37.2538 13.1816 36.8047V33.3403H14.5916V36.3984C14.5916 36.9116 14.6771 37.2752 14.848 37.4676C15.0189 37.6601 15.2966 37.7456 15.7025 37.7456C15.852 37.7456 16.0229 37.7456 16.1938 37.7242C16.3647 37.7029 16.557 37.6601 16.7706 37.6173V33.3403H16.7493Z" fill="white"/>
<path d="M23.4784 30.86H24.8884V38.858C24.1834 39.0505 23.4357 39.1574 22.6239 39.1574C22.1112 39.1574 21.6412 39.0719 21.2353 38.9222C20.8294 38.7725 20.4876 38.5586 20.1885 38.302C19.9108 38.024 19.6972 37.7246 19.5476 37.3611C19.3981 36.9975 19.334 36.6126 19.334 36.1849C19.334 35.7572 19.4194 35.3723 19.569 35.0087C19.7185 34.6452 19.9321 34.3244 20.2099 34.0464C20.4876 33.7684 20.8294 33.5545 21.2139 33.4049C21.5985 33.2552 22.0471 33.1696 22.5171 33.1696C22.6453 33.1696 22.7948 33.1696 22.9443 33.191C23.1152 33.2124 23.2861 33.2338 23.4784 33.2552V30.86ZM21.278 34.9232C20.9576 35.2012 20.7867 35.6075 20.7867 36.1421C20.7867 36.6981 20.9576 37.1044 21.278 37.3611C21.5985 37.6177 22.0471 37.746 22.6025 37.746C22.8589 37.746 23.158 37.7032 23.4784 37.6391V34.6452C23.3075 34.6024 23.1366 34.5596 23.0084 34.5596C22.8589 34.5383 22.7307 34.5383 22.6025 34.5383C22.0471 34.5169 21.5985 34.6666 21.278 34.9232Z" fill="white"/>
<path d="M27.216 32.4642C27.0023 32.4642 26.8101 32.4001 26.6392 32.2718C26.4683 32.1435 26.3828 31.951 26.3828 31.7158C26.3828 31.5019 26.4683 31.3094 26.6178 31.1811C26.7673 31.0528 26.981 30.9673 27.216 30.9673C27.451 30.9673 27.6432 31.0314 27.7928 31.1811C27.9423 31.3094 28.0278 31.5019 28.0278 31.7158C28.0278 31.951 27.9423 32.1221 27.7928 32.2718C27.6432 32.4001 27.451 32.4642 27.216 32.4642ZM26.511 33.341H27.9209V39.008H26.511V33.341Z" fill="white"/>
<path d="M35.6125 35.8H34.1812V39.0291H32.7285V30.86H35.7834C36.3175 30.86 36.7661 30.9242 37.1507 31.0739C37.5352 31.2022 37.8343 31.3947 38.0693 31.6299C38.3043 31.8651 38.4965 32.1218 38.6033 32.4211C38.7102 32.7205 38.7742 33.0199 38.7742 33.3407C38.7742 33.5759 38.7529 33.8112 38.6888 34.025C38.6247 34.2603 38.5393 34.4741 38.4111 34.6666C38.2829 34.859 38.112 35.0515 37.8984 35.2012C37.6847 35.3723 37.4284 35.5006 37.1293 35.5861L39.2656 39.0077H37.642L35.6125 35.8ZM34.1812 32.2073V34.5383H35.463C35.7407 34.5383 35.9757 34.5169 36.1893 34.4955C36.403 34.4527 36.5952 34.4099 36.7448 34.303C36.8943 34.2175 37.0225 34.0892 37.1079 33.9395C37.1934 33.7898 37.2361 33.5973 37.2361 33.3621C37.2361 32.9558 37.0866 32.6564 36.8089 32.4853C36.5311 32.3142 36.0825 32.2287 35.463 32.2287H34.1812V32.2073Z" fill="white"/>
<path d="M43.1102 37.7459C43.2598 37.7459 43.4093 37.7245 43.5802 37.7031C43.7511 37.6818 43.9006 37.639 44.0502 37.5962C44.1997 37.5534 44.3493 37.5107 44.4774 37.4465C44.6056 37.3824 44.7124 37.3182 44.7765 37.2541L45.3961 38.5158C45.097 38.6868 44.7552 38.8365 44.3493 38.9435C43.9434 39.0718 43.4734 39.1359 42.9179 39.1359C42.4693 39.1359 42.0634 39.0504 41.6789 38.9007C41.2944 38.751 40.9739 38.5372 40.6962 38.2805C40.4185 38.0025 40.2048 37.7031 40.0553 37.3396C39.9058 36.9761 39.8203 36.5697 39.8203 36.1634C39.8203 35.7357 39.9058 35.3294 40.0553 34.9659C40.2048 34.6023 40.4185 34.2816 40.6962 34.0249C40.9739 33.7683 41.2944 33.5545 41.6575 33.4048C42.0207 33.2551 42.4052 33.1909 42.8325 33.1909C43.2598 33.1909 43.6657 33.2765 44.0288 33.4262C44.392 33.5758 44.7124 33.8111 44.9688 34.1105C45.2252 34.4099 45.4388 34.7734 45.567 35.2011C45.7165 35.6288 45.7592 36.1207 45.7379 36.6553H41.2516C41.3371 37.0402 41.5507 37.3396 41.8498 37.5107C42.1489 37.7031 42.5121 37.7887 42.9607 37.7887H43.1102V37.7459ZM43.7725 34.6665C43.5161 34.4954 43.1957 34.4099 42.8111 34.4099C42.4266 34.4099 42.1062 34.5168 41.8498 34.7092C41.5934 34.9017 41.4225 35.1583 41.3371 35.4577H44.2852C44.1997 35.0942 44.0288 34.8376 43.7725 34.6665Z" fill="white"/>
<path d="M49.3285 39.1357C48.9653 39.1357 48.6235 39.093 48.303 39.0288C47.9826 38.9647 47.6835 38.8577 47.4485 38.708C47.2135 38.5583 46.9999 38.3659 46.8503 38.1306C46.7008 37.8954 46.6367 37.596 46.6367 37.2539C46.6367 36.9331 46.7008 36.6551 46.829 36.4198C46.9572 36.1846 47.1494 35.9708 47.3631 35.8211C47.5981 35.65 47.8758 35.5431 48.1962 35.4575C48.5167 35.372 48.8798 35.3292 49.2644 35.3292C49.4139 35.3292 49.5848 35.3292 49.7771 35.3506C49.9693 35.3506 50.1616 35.372 50.3752 35.4148V35.3292C50.3752 35.0084 50.2471 34.7946 50.0121 34.6663C49.7771 34.5594 49.4566 34.4952 49.0721 34.4952C48.9226 34.4952 48.773 34.5166 48.5808 34.538C48.4098 34.5594 48.2389 34.6021 48.0467 34.6449C47.8758 34.6877 47.7049 34.7518 47.534 34.816C47.3631 34.8801 47.2135 34.9443 47.064 35.0084L47.2349 33.5756C47.4699 33.4687 47.7476 33.3618 48.1108 33.2763C48.4739 33.1907 48.8371 33.1479 49.243 33.1479C49.6062 33.1479 49.948 33.1907 50.2471 33.2763C50.5461 33.3618 50.8239 33.4901 51.0375 33.6612C51.2725 33.8323 51.4434 34.0675 51.5716 34.3455C51.6997 34.6235 51.7638 34.9871 51.7638 35.3934V38.6866C51.4007 38.8363 51.0161 38.9433 50.5675 39.0074C50.1616 39.093 49.7344 39.1357 49.3285 39.1357ZM50.3752 36.5482C50.2471 36.5054 50.0975 36.484 49.9053 36.4626C49.7344 36.4412 49.5635 36.4198 49.4139 36.4198C49.243 36.4198 49.0721 36.4412 48.9012 36.4626C48.7517 36.484 48.6021 36.5268 48.4739 36.5909C48.3458 36.6551 48.2603 36.7192 48.1962 36.8262C48.1321 36.9117 48.0894 37.04 48.0894 37.1683C48.0894 37.4249 48.2176 37.6174 48.4526 37.7243C48.6876 37.8312 48.9866 37.874 49.3285 37.874C49.4994 37.874 49.6703 37.8526 49.8625 37.8312C50.0334 37.8099 50.2043 37.7671 50.3752 37.7029V36.5482Z" fill="white"/>
<path d="M53.3008 39.0074V30.8384H54.7107V39.0074H53.3008Z" fill="white"/>
<path d="M59.5391 30.86H64.7516V32.2073H60.9917V34.1533H64.3885V35.522H60.9917V37.6818H64.773V39.0291H59.5391V30.86Z" fill="white"/>
<path d="M68.3407 37.7456C68.6184 37.7456 68.8747 37.7028 69.0884 37.6387C69.302 37.5745 69.4088 37.4676 69.4088 37.2965C69.4088 37.1468 69.3447 37.0399 69.2165 36.9544C69.0884 36.8688 68.832 36.8047 68.4688 36.7191L68.0202 36.6336C67.3793 36.5053 66.8666 36.3128 66.5034 36.0348C66.1403 35.7568 65.9694 35.3719 65.9694 34.88C65.9694 34.3454 66.183 33.9177 66.5889 33.5969C67.0162 33.2762 67.593 33.1265 68.3193 33.1265C68.7679 33.1265 69.1952 33.1692 69.6224 33.2548C70.0497 33.3403 70.4129 33.4686 70.7333 33.6397L70.2206 34.9442C70.0924 34.88 69.9429 34.8159 69.7933 34.7517C69.6224 34.6876 69.4729 34.6448 69.2806 34.602C69.1097 34.5593 68.9388 34.5379 68.7466 34.5165C68.5756 34.4951 68.4047 34.4951 68.2338 34.4951C67.6357 34.4951 67.358 34.6234 67.358 34.8586C67.358 34.987 67.4221 35.0939 67.5502 35.1794C67.6784 35.265 67.9348 35.3291 68.2766 35.4147L68.7252 35.5002C69.4943 35.6499 70.0497 35.8637 70.3701 36.1631C70.6906 36.4625 70.8615 36.8688 70.8615 37.3607C70.8615 37.6173 70.7974 37.8311 70.6906 38.045C70.5838 38.2588 70.4129 38.4513 70.1992 38.601C69.9856 38.7507 69.7079 38.879 69.3874 38.9646C69.067 39.0501 68.6825 39.0929 68.2552 39.0929C68.0202 39.0929 67.8066 39.0715 67.5716 39.0501C67.3366 39.0287 67.123 38.9859 66.888 38.9432C66.6743 38.9004 66.4607 38.8362 66.2685 38.7721C66.0762 38.7079 65.8839 38.6224 65.7344 38.5155L66.2685 37.1468C66.5248 37.3179 66.8239 37.4462 67.1871 37.5531C67.593 37.7028 67.9561 37.7456 68.3407 37.7456Z" fill="white"/>
<path d="M71.5879 33.3407H72.656V31.2664H74.066V33.3407H76.2237V34.6452H74.066V36.6981C74.066 36.8906 74.0874 37.0617 74.1087 37.19C74.1514 37.3183 74.1942 37.4252 74.2796 37.4894C74.3651 37.5535 74.4719 37.6177 74.6001 37.6605C74.7283 37.7032 74.8778 37.7032 75.0701 37.7032H76.2664V39.0077H74.9205C74.5146 39.0077 74.1942 38.9863 73.8951 38.9222C73.6174 38.858 73.3824 38.7511 73.1901 38.6228C72.9978 38.4731 72.8697 38.302 72.7842 38.0668C72.6988 37.8315 72.656 37.5535 72.656 37.2114V34.6666H71.5879V33.3407Z" fill="white"/>
<path d="M79.8988 39.1357C79.5356 39.1357 79.1938 39.093 78.8733 39.0288C78.5529 38.9647 78.2538 38.8577 78.0188 38.708C77.7838 38.5583 77.5702 38.3659 77.4207 38.1306C77.2711 37.8954 77.207 37.596 77.207 37.2539C77.207 36.9331 77.2711 36.6551 77.3993 36.4198C77.5275 36.1846 77.7197 35.9708 77.9334 35.8211C78.1684 35.65 78.4461 35.5431 78.7665 35.4575C79.087 35.372 79.4502 35.3292 79.8347 35.3292C79.9842 35.3292 80.1551 35.3292 80.3474 35.3506C80.5397 35.3506 80.7319 35.372 80.9456 35.4148V35.3292C80.9456 35.0084 80.8174 34.7946 80.5824 34.6663C80.3474 34.5594 80.0269 34.4952 79.6424 34.4952C79.4929 34.4952 79.3433 34.5166 79.1511 34.538C78.9802 34.5594 78.8093 34.6021 78.617 34.6449C78.4461 34.6877 78.2752 34.7518 78.1043 34.816C77.9334 34.8801 77.7838 34.9443 77.6343 35.0084L77.8052 33.5756C78.0402 33.4687 78.3179 33.3618 78.6811 33.2763C79.0442 33.1907 79.4074 33.1479 79.8133 33.1479C80.1765 33.1479 80.5183 33.1907 80.8174 33.2763C81.1165 33.3618 81.3942 33.4901 81.6078 33.6612C81.8428 33.8323 82.0137 34.0675 82.1419 34.3455C82.2701 34.6235 82.3342 34.9871 82.3342 35.3934V38.6866C81.971 38.8363 81.5864 38.9433 81.1378 39.0074C80.7319 39.093 80.3047 39.1357 79.8988 39.1357ZM80.9456 36.5482C80.8174 36.5054 80.6678 36.484 80.4756 36.4626C80.3047 36.4412 80.1338 36.4198 79.9842 36.4198C79.8133 36.4198 79.6424 36.4412 79.4715 36.4626C79.322 36.484 79.1724 36.5268 79.0443 36.5909C78.9161 36.6551 78.8306 36.7192 78.7665 36.8262C78.7024 36.9117 78.6597 37.04 78.6597 37.1683C78.6597 37.4249 78.7879 37.6174 79.0229 37.7243C79.2579 37.8312 79.557 37.874 79.8988 37.874C80.0697 37.874 80.2406 37.8526 80.4328 37.8312C80.6038 37.8099 80.7747 37.7671 80.9456 37.7029V36.5482Z" fill="white"/>
<path d="M83.252 33.3407H84.3201V31.2664H85.7301V33.3407H87.8877V34.6452H85.7301V36.6981C85.7301 36.8906 85.7514 37.0617 85.7728 37.19C85.8155 37.3183 85.8582 37.4252 85.9437 37.4894C86.0291 37.5535 86.136 37.6177 86.2641 37.6605C86.3923 37.7032 86.5419 37.7032 86.7341 37.7032H87.9305V39.0077H86.5846C86.1787 39.0077 85.8582 38.9863 85.5592 38.9222C85.2814 38.858 85.0464 38.7511 84.8542 38.6228C84.6619 38.4731 84.5337 38.302 84.4483 38.0668C84.3628 37.8315 84.3201 37.5535 84.3201 37.2114V34.6666H83.252V33.3407Z" fill="white"/>
<path d="M91.7977 37.7459C91.9473 37.7459 92.0968 37.7245 92.2677 37.7031C92.4386 37.6818 92.5882 37.639 92.7377 37.5962C92.8872 37.5534 93.0368 37.5107 93.165 37.4465C93.2931 37.3824 93.3999 37.3182 93.464 37.2541L94.0836 38.5158C93.7845 38.6868 93.4427 38.8365 93.0368 38.9435C92.6309 39.0718 92.1609 39.1359 91.6054 39.1359C91.1568 39.1359 90.7509 39.0504 90.3664 38.9007C89.9819 38.751 89.6614 38.5372 89.3837 38.2805C89.106 38.0025 88.8923 37.7031 88.7428 37.3396C88.5933 36.9761 88.5078 36.5697 88.5078 36.1634C88.5078 35.7357 88.5933 35.3294 88.7428 34.9659C88.8923 34.6023 89.106 34.2816 89.3837 34.0249C89.6614 33.7683 89.9819 33.5545 90.345 33.4048C90.7082 33.2551 91.0927 33.1909 91.52 33.1909C91.9473 33.1909 92.3532 33.2765 92.7163 33.4262C93.0795 33.5758 93.3999 33.8111 93.6563 34.1105C93.9127 34.4099 94.1263 34.7734 94.2545 35.2011C94.404 35.6288 94.4467 36.1207 94.4254 36.6553H89.9391C90.0246 37.0402 90.2382 37.3396 90.5373 37.5107C90.8364 37.7031 91.1996 37.7887 91.6482 37.7887H91.7977V37.7459ZM92.46 34.6665C92.2036 34.4954 91.8832 34.4099 91.4986 34.4099C91.1141 34.4099 90.7937 34.5168 90.5373 34.7092C90.2809 34.9017 90.11 35.1583 90.0246 35.4577H92.9727C92.8872 35.0942 92.7163 34.8376 92.46 34.6665Z" fill="white"/>
<path d="M105.62 39.0074H104.103L103.419 37.0828H100.044L99.3605 39.0074H97.8438L100.856 30.8384H102.608L105.62 39.0074ZM100.514 35.7355H102.928L101.732 32.3353L100.514 35.7355Z" fill="white"/>
<path d="M109.827 34.6026H109.015C108.951 34.6026 108.887 34.6026 108.78 34.6026C108.673 34.6026 108.566 34.6026 108.46 34.624C108.353 34.624 108.246 34.6454 108.139 34.6668C108.032 34.6882 107.968 34.6882 107.926 34.7095V39.0079H106.516V33.4906C106.687 33.4478 106.879 33.4264 107.071 33.4051C107.263 33.3837 107.477 33.3409 107.669 33.3195C107.861 33.2981 108.054 33.2768 108.246 33.2768C108.438 33.2554 108.588 33.2554 108.737 33.2554H109.806V34.6026H109.827Z" fill="white"/>
<path d="M112.348 33.2335C112.54 33.2121 112.711 33.1907 112.882 33.1693C113.053 33.148 113.181 33.148 113.33 33.148C113.822 33.148 114.249 33.2335 114.634 33.3832C115.018 33.5329 115.36 33.7467 115.638 34.0247C115.915 34.3027 116.129 34.6235 116.278 34.9871C116.428 35.3506 116.513 35.7569 116.513 36.1632C116.513 36.5909 116.449 36.9759 116.3 37.3394C116.15 37.7029 115.937 38.0237 115.659 38.2803C115.381 38.5583 115.039 38.7508 114.634 38.9005C114.228 39.0502 113.758 39.1357 113.245 39.1357C112.433 39.1357 111.664 39.0288 110.98 38.8363V30.8384H112.39V33.2335H112.348ZM112.348 37.6388C112.668 37.7029 112.967 37.7457 113.224 37.7457C113.779 37.7457 114.228 37.6174 114.548 37.3608C114.869 37.1042 115.039 36.6978 115.039 36.1418C115.039 35.5858 114.869 35.1795 114.548 34.9229C114.228 34.6449 113.779 34.5166 113.224 34.5166C113.095 34.5166 112.946 34.5166 112.818 34.538C112.668 34.5594 112.519 34.5807 112.348 34.6235V37.6388Z" fill="white"/>
<path d="M118.351 32.4642C118.137 32.4642 117.945 32.4001 117.774 32.2718C117.603 32.1435 117.518 31.951 117.518 31.7158C117.518 31.5019 117.603 31.3094 117.753 31.1811C117.902 31.0528 118.116 30.9673 118.351 30.9673C118.586 30.9673 118.778 31.0314 118.928 31.1811C119.077 31.3094 119.163 31.5019 119.163 31.7158C119.163 31.951 119.077 32.1221 118.928 32.2718C118.778 32.4001 118.586 32.4642 118.351 32.4642ZM117.646 33.341H119.056V39.008H117.646V33.341Z" fill="white"/>
<path d="M120.061 33.3407H121.129V31.2664H122.539V33.3407H124.696V34.6452H122.539V36.6981C122.539 36.8906 122.56 37.0617 122.581 37.19C122.624 37.3183 122.667 37.4252 122.752 37.4894C122.838 37.5535 122.945 37.6177 123.073 37.6605C123.201 37.7032 123.35 37.7032 123.543 37.7032H124.739V39.0077H123.393C122.987 39.0077 122.667 38.9863 122.368 38.9222C122.09 38.858 121.855 38.7511 121.663 38.6228C121.471 38.4731 121.342 38.302 121.257 38.0668C121.171 37.8315 121.129 37.5535 121.129 37.2114V34.6666H120.061V33.3407Z" fill="white"/>
<path d="M129.268 34.6026H128.457C128.392 34.6026 128.328 34.6026 128.222 34.6026C128.115 34.6026 128.008 34.6026 127.901 34.624C127.794 34.624 127.687 34.6454 127.581 34.6668C127.474 34.6882 127.41 34.6882 127.367 34.7095V39.0079H125.957V33.4906C126.128 33.4478 126.32 33.4264 126.512 33.4051C126.705 33.3837 126.918 33.3409 127.111 33.3195C127.303 33.2981 127.495 33.2768 127.687 33.2768C127.88 33.2554 128.029 33.2554 128.179 33.2554H129.247V34.6026H129.268Z" fill="white"/>
<path d="M132.772 39.1357C132.409 39.1357 132.067 39.093 131.746 39.0288C131.426 38.9647 131.127 38.8577 130.892 38.708C130.657 38.5583 130.443 38.3659 130.294 38.1306C130.144 37.8954 130.08 37.596 130.08 37.2539C130.08 36.9331 130.144 36.6551 130.272 36.4198C130.401 36.1846 130.593 35.9708 130.806 35.8211C131.041 35.65 131.319 35.5431 131.64 35.4575C131.96 35.372 132.323 35.3292 132.708 35.3292C132.857 35.3292 133.028 35.3292 133.22 35.3506C133.413 35.3506 133.605 35.372 133.819 35.4148V35.3292C133.819 35.0084 133.69 34.7946 133.455 34.6663C133.22 34.5594 132.9 34.4952 132.515 34.4952C132.366 34.4952 132.216 34.5166 132.024 34.538C131.853 34.5594 131.682 34.6021 131.49 34.6449C131.319 34.6877 131.148 34.7518 130.977 34.816C130.806 34.8801 130.657 34.9443 130.507 35.0084L130.678 33.5756C130.913 33.4687 131.191 33.3618 131.554 33.2763C131.917 33.1907 132.28 33.1479 132.686 33.1479C133.05 33.1479 133.391 33.1907 133.69 33.2763C133.99 33.3618 134.267 33.4901 134.481 33.6612C134.694 33.8323 134.887 34.0675 135.015 34.3455C135.143 34.6235 135.207 34.9871 135.207 35.3934V38.6866C134.844 38.8363 134.459 38.9433 134.011 39.0074C133.605 39.093 133.178 39.1357 132.772 39.1357ZM133.819 36.5482C133.69 36.5054 133.541 36.484 133.349 36.4626C133.178 36.4412 133.007 36.4198 132.857 36.4198C132.686 36.4198 132.515 36.4412 132.345 36.4626C132.195 36.484 132.045 36.5268 131.917 36.5909C131.789 36.6551 131.704 36.7192 131.64 36.8262C131.575 36.9117 131.533 37.04 131.533 37.1683C131.533 37.4249 131.661 37.6174 131.896 37.7243C132.131 37.8312 132.43 37.874 132.772 37.874C132.943 37.874 133.114 37.8526 133.306 37.8312C133.477 37.8099 133.648 37.7671 133.819 37.7029V36.5482Z" fill="white"/>
<path d="M136.125 33.3405H137.193V31.2661H138.603V33.3405H140.761V34.6449H138.603V36.6979C138.603 36.8904 138.624 37.0614 138.646 37.1897C138.667 37.318 138.731 37.425 138.817 37.4891C138.902 37.5533 139.009 37.6174 139.137 37.6602C139.265 37.703 139.415 37.703 139.607 37.703H140.803V39.0075H139.458C139.052 39.0075 138.731 38.9861 138.432 38.9219C138.133 38.8578 137.919 38.7508 137.727 38.6225C137.535 38.4728 137.407 38.3018 137.321 38.0665C137.236 37.8313 137.193 37.5533 137.193 37.2111V34.6663H136.125V33.3405Z" fill="white"/>
<path d="M142.769 32.4642C142.555 32.4642 142.363 32.4001 142.192 32.2718C142.021 32.1435 141.936 31.951 141.936 31.7158C141.936 31.5019 142.021 31.3094 142.171 31.1811C142.32 31.0528 142.534 30.9673 142.769 30.9673C143.004 30.9673 143.196 31.0314 143.346 31.1811C143.495 31.3094 143.58 31.5019 143.58 31.7158C143.58 31.951 143.495 32.1221 143.346 32.2718C143.196 32.4001 143.004 32.4642 142.769 32.4642ZM142.064 33.341H143.474V39.008H142.064V33.341Z" fill="white"/>
<path d="M148.88 38.9006C148.517 39.0503 148.111 39.1358 147.662 39.1358C147.235 39.1358 146.829 39.0503 146.445 38.9006C146.081 38.7509 145.74 38.537 145.483 38.2804C145.206 38.0238 144.992 37.703 144.842 37.3395C144.693 36.976 144.607 36.5696 144.607 36.1633C144.607 35.757 144.693 35.3507 144.842 34.9872C144.992 34.6236 145.206 34.3028 145.483 34.0462C145.761 33.7682 146.081 33.5544 146.445 33.4047C146.808 33.255 147.214 33.1694 147.662 33.1694C148.09 33.1694 148.495 33.255 148.88 33.4047C149.243 33.5544 149.585 33.7682 149.841 34.0462C150.119 34.3242 150.333 34.645 150.482 34.9872C150.632 35.3507 150.717 35.7356 150.717 36.1633C150.717 36.591 150.632 36.976 150.482 37.3395C150.333 37.703 150.119 38.0238 149.841 38.2804C149.564 38.537 149.243 38.7509 148.88 38.9006ZM147 37.6389C147.192 37.7244 147.406 37.7672 147.662 37.7672C147.919 37.7672 148.132 37.7244 148.325 37.6389C148.517 37.5533 148.688 37.4464 148.816 37.2967C148.944 37.147 149.051 36.9759 149.136 36.7835C149.2 36.591 149.243 36.3772 149.243 36.1633C149.243 35.9495 149.2 35.7356 149.136 35.5432C149.072 35.3507 148.965 35.1796 148.816 35.0299C148.688 34.8802 148.517 34.7733 148.325 34.6878C148.132 34.6022 147.919 34.5595 147.662 34.5595C147.406 34.5595 147.192 34.6022 147 34.6878C146.808 34.7733 146.637 34.8802 146.509 35.0299C146.381 35.1796 146.274 35.3507 146.188 35.5432C146.124 35.7356 146.081 35.9495 146.081 36.1633C146.081 36.3772 146.124 36.591 146.188 36.7835C146.252 36.9759 146.359 37.147 146.509 37.2967C146.637 37.425 146.808 37.5533 147 37.6389Z" fill="white"/>
<path d="M151.869 33.4474C152.083 33.4047 152.318 33.3619 152.553 33.3405C152.788 33.2977 153.023 33.2764 153.236 33.255C153.471 33.2336 153.664 33.2122 153.877 33.1908C154.07 33.1694 154.262 33.1694 154.411 33.1694C154.775 33.1694 155.116 33.2122 155.437 33.2764C155.757 33.3405 156.035 33.4688 156.27 33.6399C156.505 33.811 156.697 34.0462 156.825 34.3456C156.954 34.645 157.039 35.0299 157.039 35.5004V39.0503H155.629V35.9067C155.629 35.3935 155.522 35.0299 155.309 34.8375C155.095 34.645 154.774 34.5595 154.369 34.5595C154.219 34.5595 154.048 34.5595 153.856 34.5808C153.685 34.6022 153.493 34.6236 153.279 34.6664V39.0503H151.869V33.4474Z" fill="white"/>
<path d="M165.478 32.0791C165.114 32.0791 164.751 32.1432 164.431 32.2502C164.089 32.3571 163.811 32.5282 163.555 32.7634C163.299 32.9986 163.106 33.298 162.957 33.6402C162.807 34.0037 162.743 34.41 162.743 34.9019C162.743 35.3937 162.807 35.8001 162.957 36.1636C163.106 36.5272 163.299 36.8052 163.555 37.0618C163.811 37.3184 164.089 37.4681 164.431 37.5964C164.773 37.7033 165.114 37.7675 165.478 37.7675C165.883 37.7675 166.247 37.7033 166.588 37.5964C166.93 37.4895 167.251 37.3398 167.55 37.1473L168.105 38.4304C167.763 38.6443 167.358 38.8153 166.888 38.9436C166.418 39.072 165.926 39.1361 165.413 39.1361C164.773 39.1361 164.196 39.0292 163.662 38.8153C163.149 38.6015 162.7 38.3021 162.337 37.9386C161.974 37.5536 161.696 37.1045 161.483 36.5913C161.29 36.0781 161.184 35.5221 161.184 34.9233C161.184 34.3245 161.29 33.7685 161.483 33.2553C161.675 32.742 161.953 32.2929 162.337 31.908C162.7 31.5231 163.149 31.2237 163.662 31.0312C164.174 30.8388 164.773 30.7104 165.413 30.7104C165.926 30.7104 166.418 30.7746 166.888 30.9029C167.358 31.0312 167.763 31.2023 168.105 31.4161L167.55 32.6992C167.251 32.5282 166.93 32.3785 166.588 32.2715C166.247 32.1432 165.883 32.0791 165.478 32.0791Z" fill="white"/>
<path d="M171.952 37.7459C172.102 37.7459 172.251 37.7245 172.422 37.7031C172.593 37.6818 172.742 37.639 172.892 37.5962C173.042 37.5534 173.191 37.5107 173.319 37.4465C173.447 37.3824 173.554 37.3182 173.618 37.2541L174.238 38.5158C173.939 38.6868 173.597 38.8365 173.191 38.9435C172.785 39.0718 172.315 39.1359 171.76 39.1359C171.311 39.1359 170.905 39.0504 170.521 38.9007C170.136 38.751 169.816 38.5372 169.538 38.2805C169.26 38.0025 169.047 37.7031 168.897 37.3396C168.748 36.9761 168.662 36.5697 168.662 36.1634C168.662 35.7357 168.748 35.3294 168.897 34.9659C169.047 34.6023 169.26 34.2816 169.538 34.0249C169.816 33.7683 170.136 33.5545 170.499 33.4048C170.862 33.2551 171.247 33.1909 171.674 33.1909C172.102 33.1909 172.507 33.2765 172.871 33.4262C173.234 33.5758 173.554 33.8111 173.811 34.1105C174.067 34.4099 174.281 34.7734 174.409 35.2011C174.558 35.6288 174.601 36.1207 174.58 36.6553H170.093C170.179 37.0402 170.393 37.3396 170.692 37.5107C170.991 37.6818 171.354 37.7887 171.802 37.7887H171.952V37.7459ZM172.614 34.6665C172.358 34.4954 172.037 34.4099 171.653 34.4099C171.268 34.4099 170.948 34.5168 170.692 34.7092C170.435 34.9017 170.264 35.1583 170.179 35.4577H173.127C173.042 35.0942 172.871 34.8376 172.614 34.6665Z" fill="white"/>
<path d="M175.689 33.4474C175.903 33.4047 176.138 33.3619 176.373 33.3405C176.608 33.2977 176.843 33.2764 177.057 33.255C177.292 33.2336 177.484 33.2122 177.698 33.1908C177.89 33.1694 178.082 33.1694 178.232 33.1694C178.595 33.1694 178.937 33.2122 179.257 33.2764C179.578 33.3405 179.855 33.4688 180.09 33.6399C180.325 33.811 180.517 34.0462 180.646 34.3456C180.774 34.645 180.859 35.0299 180.859 35.5004V39.0503H179.449V35.9067C179.449 35.3935 179.343 35.0299 179.129 34.8375C178.915 34.645 178.595 34.5595 178.189 34.5595C178.039 34.5595 177.868 34.5595 177.676 34.5808C177.505 34.6022 177.313 34.6236 177.099 34.6664V39.0503H175.689V33.4474Z" fill="white"/>
<path d="M181.736 33.3405H182.804V31.2661H184.214V33.3405H186.372V34.6449H184.214V36.6979C184.214 36.8904 184.236 37.0614 184.257 37.1897C184.279 37.318 184.343 37.425 184.428 37.4891C184.514 37.5533 184.62 37.6174 184.749 37.6602C184.877 37.703 185.026 37.703 185.218 37.703H186.415V39.0075H185.069C184.663 39.0075 184.343 38.9861 184.044 38.9219C183.744 38.8578 183.531 38.7508 183.339 38.6225C183.146 38.4728 183.018 38.3018 182.933 38.0665C182.847 37.8313 182.804 37.5533 182.804 37.2111V34.6663H181.736V33.3405Z" fill="white"/>
<path d="M190.28 37.7459C190.43 37.7459 190.579 37.7245 190.75 37.7031C190.921 37.6818 191.071 37.639 191.22 37.5962C191.37 37.5534 191.519 37.5107 191.647 37.4465C191.776 37.3824 191.882 37.3182 191.946 37.2541L192.566 38.5158C192.267 38.6868 191.925 38.8365 191.519 38.9435C191.113 39.0718 190.643 39.1359 190.088 39.1359C189.639 39.1359 189.233 39.0504 188.849 38.9007C188.464 38.751 188.144 38.5372 187.866 38.2805C187.588 38.0025 187.375 37.7031 187.225 37.3396C187.076 36.9761 186.99 36.5697 186.99 36.1634C186.99 35.7357 187.076 35.3294 187.225 34.9659C187.375 34.6023 187.588 34.2816 187.866 34.0249C188.144 33.7683 188.464 33.5545 188.827 33.4048C189.191 33.2551 189.575 33.1909 190.002 33.1909C190.43 33.1909 190.836 33.2765 191.199 33.4262C191.562 33.5758 191.882 33.8111 192.139 34.1105C192.395 34.4099 192.609 34.7734 192.737 35.2011C192.886 35.6288 192.929 36.1207 192.908 36.6553H188.422C188.507 37.0402 188.721 37.3396 189.02 37.5107C189.319 37.6818 189.682 37.7887 190.131 37.7887H190.28V37.7459ZM190.942 34.6665C190.686 34.4954 190.366 34.4099 189.981 34.4099C189.597 34.4099 189.276 34.5168 189.02 34.7092C188.763 34.9017 188.592 35.1583 188.507 35.4577H191.455C191.37 35.0942 191.199 34.8376 190.942 34.6665Z" fill="white"/>
<path d="M197.309 34.6024H196.498C196.433 34.6024 196.369 34.6024 196.263 34.6024C196.156 34.6024 196.049 34.6024 195.942 34.6238C195.835 34.6238 195.728 34.6451 195.622 34.6665C195.515 34.6879 195.451 34.6879 195.408 34.7093V39.0077H193.998V33.4904C194.169 33.4476 194.361 33.4262 194.553 33.4048C194.746 33.3834 194.959 33.3407 195.152 33.3193C195.344 33.2979 195.536 33.2765 195.728 33.2765C195.921 33.2551 196.07 33.2551 196.22 33.2551H197.288V34.6024H197.309Z" fill="white"/>
<path d="M166.076 21.044H164.517V21.1082C164.517 23.3108 163.705 23.9951 162.081 23.9951C161.74 23.9951 161.376 23.931 161.056 23.8668L160.949 22.7334C161.355 22.7976 161.633 22.819 161.975 22.819C162.744 22.819 163.235 22.434 163.235 21.322V13.6021H164.538V19.7395H166.098V21.044H166.076Z" fill="white"/>
<path d="M165.82 19.7395H172.507V17.4727C172.507 16.1682 171.802 15.5695 170.648 15.5695H166.995C166.782 15.2701 166.589 14.7996 166.568 14.265L168.619 10.2018H170.2L167.999 14.265H170.499C172.699 14.265 173.81 15.377 173.81 17.6866V21.0654H165.799V19.7395H165.82Z" fill="white"/>
<path d="M179.471 21.044H177.911V21.1082C177.911 23.3108 177.1 23.9951 175.476 23.9951C175.134 23.9951 174.771 23.931 174.451 23.8668L174.344 22.7334C174.75 22.7976 175.027 22.819 175.369 22.819C176.138 22.819 176.63 22.434 176.63 21.322V13.6021H177.933V19.7395H179.492V21.044H179.471Z" fill="white"/>
<path d="M163.515 10.4768L162.533 11.4597L163.515 12.4425L164.497 11.4597L163.515 10.4768Z" fill="white"/>
<path d="M177.035 19.7184C177.249 20.1247 177.334 20.6379 177.292 21.1084H185.516V19.7184H177.035Z" fill="white"/>
<path d="M185.965 24.7648L181.266 20.1029L185.965 15.4196L190.644 20.1029L185.965 24.7648Z" fill="white"/>
<path d="M185.943 22.883L183.166 20.103L185.943 17.3229L188.742 20.103L185.943 22.883Z" fill="#0276BD"/>
<path d="M132.879 20.5096C133.242 20.5096 133.605 20.5524 133.904 20.6379C134.075 20.6165 134.246 20.5951 134.438 20.5951C134.695 20.5951 134.908 20.6379 135.143 20.6807C135.293 20.6593 135.464 20.6593 135.635 20.6593C135.677 20.6593 135.72 20.6593 135.742 20.6593C135.763 20.6593 135.784 20.6593 135.827 20.6593C135.912 20.6593 135.977 20.6593 136.062 20.6807C136.147 20.6807 136.211 20.6593 136.297 20.6593C136.446 20.6593 136.596 20.6593 136.724 20.6807L139.095 18.3283L134.78 14.03L130.465 18.3283L132.665 20.531C132.729 20.531 132.793 20.5096 132.879 20.5096Z" fill="white"/>
<path d="M193.506 19.3552H188.742V20.6596H193.506V19.3552Z" fill="white"/>
<path d="M192.332 20.6807H193.614V9.62469L192.332 11.143V20.6807Z" fill="white"/>
<path d="M195.791 20.6807H197.051V9.62469L195.791 11.143V20.6807Z" fill="white"/>
<path d="M153.878 20.4245H125.572V21.729H153.878V20.4245Z" fill="white"/>
<path d="M152.703 21.7287H153.964V10.694L152.703 12.2124V21.7287Z" fill="white"/>
<path d="M156.164 21.7287H157.424V10.694L156.164 12.2124V21.7287Z" fill="white"/>
<path d="M149.243 20.9805C149.52 20.9805 149.734 21.066 149.905 21.1944V14.5436L148.645 16.062V21.173C148.794 21.066 149.008 20.9805 149.243 20.9805Z" fill="white"/>
<path d="M145.695 17.6655V21.1085C145.781 21.1298 145.866 21.1512 145.952 21.1726C146.08 21.1298 146.208 21.0871 146.379 21.0871C146.614 21.0871 146.806 21.1512 146.956 21.2582V16.1472L145.695 17.6655Z" fill="white"/>
<path d="M143.153 21.0872C143.345 21.0872 143.516 21.13 143.666 21.2155C143.708 21.2155 143.751 21.1941 143.794 21.1941C143.815 21.1941 143.815 21.1941 143.815 21.1941V17.4304L142.555 18.9487V21.2796C142.726 21.1727 142.918 21.0872 143.153 21.0872Z" fill="white"/>
<path d="M112.86 14.8425V21.7284H111.642V15.9973H110.425C109.292 15.9973 108.758 16.703 108.758 17.7508V23.2895H105.319C102.862 23.2895 101.645 22.1133 101.645 19.8038V17.0665H102.862V19.6755C102.862 21.4076 103.952 22.0706 105.554 22.0706H107.541V17.9433C107.519 15.8689 108.673 14.8425 110.617 14.8425H112.86ZM105.575 25.5777L104.593 24.594L103.61 25.5777L104.593 26.5614L105.575 25.5777ZM108.203 25.5777L107.22 24.594L106.238 25.5777L107.22 26.5614L108.203 25.5777Z" fill="white"/>
<path d="M114.035 20.5309H118.5V17.9005C118.5 16.6388 117.859 16.0614 116.706 16.0614H116.236V14.8425H116.535C118.671 14.8425 119.654 15.9117 119.654 18.0074V21.7498H114.035V20.5309Z" fill="white"/>
<path d="M128.285 21.7284H126.768C126.725 23.76 125.764 24.4657 123.991 24.4657C123.329 24.4657 122.731 24.3801 122.026 24.1235L121.812 22.8404C122.602 23.1184 123.243 23.2467 123.948 23.2467C124.91 23.2467 125.572 22.9046 125.572 21.8567V21.7498H124.824C122.538 21.7498 121.021 20.3812 121.021 18.3282V18.3068C121.021 16.2325 122.602 14.8425 124.995 14.8425H126.789V20.5309H128.306V21.7284H128.285ZM125.572 20.5309V16.04H124.739C123.222 16.04 122.175 16.9168 122.175 18.3068V18.3282C122.175 19.6755 123.243 20.5309 124.739 20.5309H125.572Z" fill="white"/>
<path d="M3.24359 24.9016L2.26172 25.8845L3.24359 26.8673L4.22547 25.8845L3.24359 24.9016Z" fill="white"/>
<path d="M5.87055 24.8996L4.88867 25.8825L5.87055 26.8654L6.85242 25.8825L5.87055 24.8996Z" fill="white"/>
<path d="M11.9419 14.864V22.3059H10.6388V16.1043H9.33563C8.13931 16.1043 7.56251 16.8741 7.56251 17.9862V23.9739H3.90943C1.28178 23.9739 0 22.7122 0 20.2102V17.2591H1.30314V20.0819C1.30314 21.9638 2.45675 22.6695 4.18715 22.6695H6.30209V18.2C6.28072 15.9546 7.47705 14.864 9.57063 14.864H11.9419Z" fill="white"/>
<path d="M12.7103 25.1073L12.6035 23.9739C13.0094 24.0381 13.2871 24.0595 13.6289 24.0595C14.398 24.0595 14.8894 23.6745 14.8894 22.5625V14.864H16.1925V22.3701C16.1925 24.5727 15.3807 25.257 13.7571 25.257C13.3939 25.257 13.0521 25.1929 12.7103 25.1073Z" fill="white"/>
<path d="M19.5258 20.9794V13.2595C19.2267 13.6016 18.7995 13.8369 18.2227 13.8582V22.3053H21.833V21.0008H19.5258V20.9794Z" fill="white"/>
<path d="M30.4417 20.9799V22.2844H28.754H28.6899C28.0918 22.2844 27.3013 22.2844 26.7459 22.2844H21.5547V20.9799H23.5201C22.986 20.3598 22.6869 19.5472 22.6869 18.6062V18.5848C22.6869 16.3394 24.3532 14.8425 26.9168 14.8425H28.8395V20.9799H30.4417ZM27.5363 20.9799V16.1469H26.6604C25.0582 16.1469 23.926 17.0879 23.926 18.5848V18.6062C23.926 20.0604 25.0582 20.9799 26.6604 20.9799H27.5363Z" fill="white"/>
<path d="M54.8806 19.6108C54.5602 19.5252 54.2825 19.3756 54.0688 19.1831C54.0047 19.1617 53.9407 19.1617 53.8552 19.1403C53.8552 19.1617 53.8552 19.1617 53.8552 19.1831C51.8684 19.2686 50.7148 20.5303 50.7148 22.7971V25.2564H52.018V22.9896C52.018 21.4927 52.6162 20.5731 53.8766 20.4876C53.8766 20.509 53.8766 20.5303 53.8766 20.5303C54.0688 20.4662 54.3038 20.4234 54.5388 20.4234C54.7738 20.4234 54.9661 20.4662 55.1584 20.5303C55.0088 20.2523 54.902 19.9316 54.8806 19.6108Z" fill="white"/>
<path d="M60.607 20.9801C60.6925 20.6166 60.7352 20.2103 60.7352 19.8039V19.7826C60.7352 19.6115 60.7352 19.4618 60.7138 19.2907C60.3293 19.4832 59.8593 19.5473 59.432 19.4618C59.432 19.5473 59.4534 19.6543 59.4534 19.7612V19.7826C59.4534 20.5738 59.2184 21.2367 58.8125 21.7072C59.2611 21.8997 59.6029 22.1991 59.8379 22.584C59.9234 22.4984 59.9875 22.4129 60.0516 22.306H61.9315V21.0015H60.607V20.9801Z" fill="white"/>
<path d="M67.4223 22.3059H61.6543V21.0014H63.7692V14.864H65.0724V21.0014H67.4437V22.3059H67.4223Z" fill="white"/>
<path d="M76.7792 20.9799V22.2843H67.1445V20.9799H73.8312V18.7344C73.8312 17.43 73.1262 16.8312 71.9726 16.8312H68.3195C68.1059 16.5318 67.9136 16.0613 67.8922 15.5267L69.9431 11.4636H71.5239L69.3236 15.5267H71.823C74.0234 15.5267 75.1343 16.6387 75.1343 18.9483V21.0226H76.7792V20.9799Z" fill="white"/>
<path d="M84.7676 20.98V22.2845H76.5215V20.98H81.905C82.0972 20.2102 82.204 19.2692 82.204 18.5635C82.204 16.9383 81.2854 15.9546 79.8114 15.9546C79.0637 15.9546 78.5082 16.1256 77.6964 16.6175L77.2265 15.4199C78.1664 14.9067 78.9782 14.6501 79.8968 14.6501C82.1827 14.6501 83.4217 16.147 83.4217 18.6491C83.4217 19.3762 83.3149 20.2102 83.1654 21.0014H84.7676V20.98Z" fill="white"/>
<path d="M90.2582 22.3059H84.4902V21.0014H86.6052V14.864H87.9083V21.0014H90.2796V22.3059H90.2582Z" fill="white"/>
<path d="M97.9066 20.9802H78.7227V22.2846H97.9066V20.9802Z" fill="white"/>
<path d="M91.8398 22.3057H93.1003V11.2497L91.8398 12.768V22.3057Z" fill="white"/>
<path d="M42.3835 20.9802H28.7539V22.2846H42.3835V20.9802Z" fill="white"/>
<path d="M41.8711 22.3057H43.1315V11.2497L41.8711 12.768V22.3057Z" fill="white"/>
<path d="M45.3105 22.3057H46.5923V11.2497L45.3105 12.768V22.3057Z" fill="white"/>
<path d="M57.8719 24.5085L53.1934 19.7824L57.8719 15.0563L62.5504 19.7824L57.8719 24.5085Z" fill="white"/>
<path d="M57.8728 22.6054L55.0742 19.7826L57.8728 16.9811L60.65 19.7826L57.8728 22.6054Z" fill="#0276BD"/>
<path d="M51.3131 22.9255C51.2918 22.9255 51.2704 22.9469 51.249 22.9469C51.1209 23.1393 50.95 23.289 50.7363 23.4173V28.2289L52.0395 26.7106V23.2035C51.7404 23.1393 51.5054 23.0538 51.3131 22.9255Z" fill="white"/>
<path d="M96.6465 22.2842H97.9283V11.2282L96.6465 12.7465V22.2842Z" fill="white"/>
<path d="M18.2227 22.156H19.4831V11.2497L18.2227 12.7466V22.156Z" fill="white"/>
<path d="M33.6679 21.2791C34.0311 21.2791 34.3943 21.3219 34.6933 21.4074C34.8643 21.3861 35.0352 21.3647 35.2274 21.3647C35.4838 21.3647 35.6974 21.4074 35.9324 21.4502C36.0819 21.4288 36.2529 21.4288 36.4238 21.4288C36.4665 21.4288 36.5092 21.4288 36.5306 21.4288C36.5519 21.4288 36.5733 21.4288 36.616 21.4288C36.7015 21.4288 36.7656 21.4288 36.851 21.4502C36.9365 21.4502 37.0006 21.4288 37.086 21.4288C37.2355 21.4288 37.3851 21.4288 37.5133 21.4502L39.8846 19.0979L35.5692 14.7995L31.2539 19.0979L33.4543 21.3005C33.5397 21.2791 33.6038 21.2791 33.6679 21.2791Z" fill="white"/>
<path d="M35.5694 21.643L33.0059 19.0982L35.5694 16.532L38.133 19.0982L35.5694 21.643Z" fill="#0276BD"/>
<path d="M62.8413 23.9192L61.8594 24.902L62.8413 25.8849L63.8231 24.902L62.8413 23.9192Z" fill="white"/>
<path d="M65.4702 23.9192L64.4883 24.902L65.4702 25.8849L66.452 24.902L65.4702 23.9192Z" fill="white"/>
<path d="M85.9858 11.7317L85.0039 12.7145L85.9858 13.6974L86.9677 12.7145L85.9858 11.7317Z" fill="white"/>
<path d="M88.6147 11.7326L87.6328 12.7155L88.6147 13.6984L89.5966 12.7155L88.6147 11.7326Z" fill="white"/>
<path d="M25.3237 11.6223L24.3418 12.6052L25.3237 13.588L26.3055 12.6052L25.3237 11.6223Z" fill="white"/>
<path d="M27.9506 11.6203L26.9688 12.6032L27.9506 13.5861L28.9325 12.6032L27.9506 11.6203Z" fill="white"/>
<path d="M134.778 20.8734L132.193 18.3286L134.778 15.7624L137.342 18.3286L134.778 20.8734Z" fill="#0276BD"/>
</g>
<defs>
<clipPath id="clip0_227_5671">
<rect width="263" height="42" fill="white" transform="translate(0 0.00146484)"/>
</clipPath>
</defs>
</svg>
