<svg width="556" height="501" viewBox="0 0 556 501" fill="none" xmlns="http://www.w3.org/2000/svg">
<g filter="url(#filter0_d_1_37)">
<rect x="408" y="24" width="100" height="100" rx="50" fill="white"/>
</g>
<path d="M458 113.6C479.871 113.6 497.6 95.8709 497.6 74.0004C497.6 52.1299 479.871 34.4004 458 34.4004C436.13 34.4004 418.4 52.1299 418.4 74.0004C418.4 95.8709 436.13 113.6 458 113.6Z" fill="#0175BC" fill-opacity="0.17"/>
<path fill-rule="evenodd" clip-rule="evenodd" d="M472.735 58.349L477.453 62.9897C477.674 63.2078 477.799 63.5057 477.799 63.8168V89.3402C477.799 89.9809 477.28 90.5004 476.639 90.5004H439.359C438.719 90.5004 438.199 89.9809 438.199 89.3402V63.8168C438.199 63.5057 438.324 63.2078 438.546 62.9897L443.264 58.349C443.481 58.1356 443.773 58.016 444.077 58.016H449.874V56.7011C449.874 56.313 450.068 55.9506 450.391 55.7355L457.36 51.0949C457.75 50.8354 458.257 50.8356 458.647 51.0952L465.608 55.7358C465.93 55.951 466.124 56.3133 466.124 56.7011V58.016H471.921C472.226 58.016 472.518 58.1356 472.735 58.349ZM475.48 71.8604H466.125V74.1807H475.48V71.8604ZM466.125 76.501H475.48V78.8213H466.125V76.501ZM466.125 69.54H475.48V67.2197H466.125V69.54ZM466.125 81.1416H475.48V83.4619H466.125V81.1416ZM475.48 64.3026L471.447 60.3359H466.125V64.8992H475.48V64.3026ZM458.002 53.4551L461.132 55.5414H454.869L458.002 53.4551ZM449.874 71.8605H440.519V74.1808H449.874V71.8605ZM440.519 76.5011H449.874V78.8215H440.519V76.5011ZM440.519 69.5402H449.874V67.2199H440.519V69.5402ZM440.519 81.1418H449.874V83.4621H440.519V81.1418ZM449.874 60.3359H444.552L440.52 64.3026V64.8992H449.874V60.3359ZM440.519 85.7824H449.874V88.1801H440.519V85.7824ZM456.834 84.6259V88.1799H459.162V84.6259C459.162 83.9841 458.64 83.4619 457.998 83.4619C457.356 83.4619 456.834 83.9841 456.834 84.6259ZM461.482 88.1801V84.6262C461.482 82.7049 459.919 81.1418 457.998 81.1418C456.077 81.1418 454.514 82.7049 454.514 84.6262V88.1801H452.193V57.8613H463.803V79.8518C463.798 79.8945 463.795 79.9377 463.795 79.9817C463.795 80.0256 463.798 80.0688 463.803 80.1115V88.1801H461.482ZM466.125 85.7822V88.1799H475.48V85.7822H466.125ZM460.32 62.5791H455.68C455.039 62.5791 454.52 63.0985 454.52 63.7393C454.52 64.38 455.039 64.8994 455.68 64.8994H460.32C460.961 64.8994 461.48 64.38 461.48 63.7393C461.48 63.0985 460.961 62.5791 460.32 62.5791ZM455.68 67.2197H460.32C460.961 67.2197 461.48 67.7392 461.48 68.3799C461.48 69.0206 460.961 69.54 460.32 69.54H455.68C455.039 69.54 454.52 69.0206 454.52 68.3799C454.52 67.7392 455.039 67.2197 455.68 67.2197ZM460.32 71.8604H455.68C455.039 71.8604 454.52 72.3798 454.52 73.0205C454.52 73.6612 455.039 74.1807 455.68 74.1807H460.32C460.961 74.1807 461.48 73.6612 461.48 73.0205C461.48 72.3798 460.961 71.8604 460.32 71.8604ZM455.68 76.501H460.32C460.961 76.501 461.48 77.0204 461.48 77.6611C461.48 78.3018 460.961 78.8213 460.32 78.8213H455.68C455.039 78.8213 454.52 78.3018 454.52 77.6611C454.52 77.0204 455.039 76.501 455.68 76.501Z" fill="#0175BC"/>
<rect x="0.669922" y="86.2002" width="470.331" height="414.8" rx="20" fill="#54C3BA"/>
<defs>
<filter id="filter0_d_1_37" x="360" y="0" width="196" height="196" filterUnits="userSpaceOnUse" color-interpolation-filters="sRGB">
<feFlood flood-opacity="0" result="BackgroundImageFix"/>
<feColorMatrix in="SourceAlpha" type="matrix" values="0 0 0 0 0 0 0 0 0 0 0 0 0 0 0 0 0 0 127 0" result="hardAlpha"/>
<feOffset dy="24"/>
<feGaussianBlur stdDeviation="24"/>
<feColorMatrix type="matrix" values="0 0 0 0 0.143787 0 0 0 0 0.133555 0 0 0 0 0 0 0 0 0.0816067 0"/>
<feBlend mode="normal" in2="BackgroundImageFix" result="effect1_dropShadow_1_37"/>
<feBlend mode="normal" in="SourceGraphic" in2="effect1_dropShadow_1_37" result="shape"/>
</filter>
</defs>
</svg>
