<svg width="70" height="70" viewBox="0 0 70 70" fill="none" xmlns="http://www.w3.org/2000/svg">
<path d="M35 2.47614C33.8665 2.47614 32.9492 3.39338 32.9492 4.52692V10.6793C32.9492 11.8128 33.8665 12.73 35 12.73C36.1335 12.73 37.0508 11.8128 37.0508 10.6793V4.52692C37.0508 3.39338 36.1335 2.47614 35 2.47614ZM24.1454 15.3816L20.0438 11.28C19.2426 10.479 17.9449 10.479 17.1438 11.28C16.3428 12.081 16.3428 13.3789 17.1438 14.1799L21.2454 18.2815C22.0464 19.0825 23.3443 19.0825 24.1454 18.2815C24.9464 17.4805 24.9464 16.1826 24.1454 15.3816ZM52.8563 11.28C52.0553 10.479 50.7574 10.479 49.9563 11.28L45.8548 15.3816C45.0537 16.1826 45.0537 17.4805 45.8548 18.2815C46.6558 19.0825 47.9537 19.0825 48.7547 18.2815L52.8563 14.1799C53.6573 13.3789 53.6573 12.081 52.8563 11.28ZM67.9492 31.1871H61.6602V59.898H67.9492C69.0828 59.898 70 58.9808 70 57.8472V33.2379C70 32.1043 69.0828 31.1871 67.9492 31.1871ZM2.05078 31.1871C0.917246 31.1871 0 32.1043 0 33.2379V57.8472C0 58.9808 0.917246 59.898 2.05078 59.898H8.33984V31.1871H2.05078ZM33.4339 33.2379C31.8697 33.2379 30.4638 34.107 29.7649 35.5049L23.5225 47.9938C24.5678 48.4523 25.6733 48.6847 26.8029 48.6847C29.9251 48.6847 32.735 46.9445 34.1348 44.1406L35.4847 41.441H39.454C40.5336 41.441 41.5909 41.8796 42.354 42.6426L57.5586 57.8472V33.2379H33.4339Z" fill="white"/>
<path d="M39.454 45.5426H38.0201L37.9017 45.7796C35.9646 49.6537 32.1867 52.3889 27.8696 52.7418C24.693 53.0017 22.4917 52.0878 19.8815 50.9006C18.82 50.4179 18.3582 49.1497 18.8796 48.1067L26.095 33.6724C26.7763 32.3093 27.8238 31.163 29.12 30.3618C30.4163 29.5605 31.91 29.1362 33.4339 29.1362H42.2841C42.8522 27.8779 43.2031 26.5043 43.2031 25.0346C43.2031 23.9011 42.2859 22.9838 41.1523 22.9838H25.2308C24.088 22.9838 22.9677 23.302 21.9956 23.9028C21.0235 24.5036 20.2378 25.3632 19.7267 26.3854L17.8931 30.0529C17.7227 30.3936 17.4608 30.6802 17.1368 30.8805C16.8127 31.0808 16.4393 31.1869 16.0583 31.187H12.4414V59.8979H21.8462L27.656 65.7078C29.3401 67.3919 31.7658 67.9236 33.8584 67.2238L51.3722 61.7183C52.4189 61.4237 53.3013 60.8478 54.021 60.1094L39.454 45.5426Z" fill="white"/>
</svg>
