<svg width="71" height="71" viewBox="0 0 71 71" fill="none" xmlns="http://www.w3.org/2000/svg">
<path d="M35.5 71C55.1061 71 71 55.1061 71 35.5C71 15.8939 55.1061 0 35.5 0C15.8939 0 0 15.8939 0 35.5C0 55.1061 15.8939 71 35.5 71Z" fill="#54C3BA" fill-opacity="0.13"/>
<g clip-path="url(#clip0_227_5345)">
<path d="M45.2701 18.4399C45.1584 18.3261 45.0256 18.2358 44.8793 18.1742C44.733 18.1126 44.5761 18.0809 44.4177 18.0809C44.2592 18.081 44.1023 18.1128 43.956 18.1744C43.8097 18.2361 43.677 18.3264 43.5653 18.4402L40.0168 22.0585C39.7819 22.2977 39.47 22.4297 39.1392 22.4297H31.7987C31.4675 22.4297 31.1559 22.2977 30.9188 22.0565L27.4327 18.5193C27.3211 18.406 27.1886 18.3161 27.0426 18.2548C26.8967 18.1935 26.7402 18.1619 26.5822 18.162H26.5809C26.4226 18.1622 26.266 18.194 26.1199 18.2557C25.9738 18.3173 25.8412 18.4076 25.7297 18.5212L15.3487 29.1025C14.8829 29.5773 14.8839 30.3436 15.3509 30.8173L18.3282 33.8355C18.8921 34.4107 19.2027 35.1757 19.2027 35.99C19.2027 37.0436 19.4949 38.0514 20.038 38.9195C18.8562 40.3736 18.9325 42.5391 20.2682 43.9004C20.9147 44.5597 21.7615 44.9408 22.6696 44.9857C22.7112 45.8744 23.064 46.7505 23.7284 47.4275C24.375 48.0868 25.2217 48.4679 26.1301 48.5128C26.1715 49.4016 26.5246 50.2776 27.1887 50.9547C28.2344 52.0206 29.7349 52.2893 31.0021 51.8289C31.1813 52.3536 31.4754 52.8306 31.8623 53.2243C33.2884 54.6784 35.601 54.6787 37.0273 53.2243L37.5344 52.7077C37.8426 52.3937 38.0924 52.0261 38.272 51.6225C39.6906 52.8907 41.8771 52.8626 43.2593 51.4535C43.9237 50.7764 44.2766 49.9004 44.318 49.0116C45.226 48.9671 46.073 48.5856 46.7196 47.9264C47.384 47.2493 47.7368 46.3733 47.7785 45.4845C48.6862 45.4399 49.5333 45.0585 50.1798 44.3996C51.508 43.0458 51.5916 40.8965 50.4305 39.4425C51.2766 38.2362 51.7348 36.7964 51.7348 35.2845C51.7348 34.9304 51.8753 34.5841 52.1202 34.3344L55.6512 30.7338C56.116 30.2601 56.116 29.4953 55.6512 29.0215L45.2701 18.4399ZM21.9733 40.3733L23.7035 38.6097C23.8181 38.492 23.9547 38.3985 24.1053 38.3348C24.256 38.271 24.4177 38.2381 24.581 38.2381C24.7443 38.2381 24.906 38.271 25.0566 38.3348C25.2073 38.3985 25.3439 38.492 25.4585 38.6097C25.9496 39.1101 25.9496 39.9242 25.4585 40.4243L23.7284 42.1882C23.6138 42.3058 23.4772 42.3993 23.3265 42.463C23.1758 42.5268 23.0142 42.5597 22.8509 42.5597C22.6876 42.5597 22.5259 42.5268 22.3752 42.463C22.2246 42.3993 22.0879 42.3058 21.9733 42.1882C21.4825 41.6878 21.4825 40.8737 21.9733 40.3732V40.3733ZM25.4335 43.9004L28.8937 40.3733C29.0084 40.2556 29.145 40.1621 29.2957 40.0983C29.4464 40.0345 29.6081 40.0016 29.7715 40.0016C29.9348 40.0016 30.0966 40.0345 30.2473 40.0983C30.398 40.1621 30.5346 40.2556 30.6493 40.3733C31.1401 40.8737 31.1401 41.6878 30.6493 42.1881C29.4158 43.4453 29.3502 43.512 27.1887 45.7153C27.074 45.8329 26.9374 45.9263 26.7867 45.9901C26.636 46.0538 26.4744 46.0866 26.311 46.0866C26.1477 46.0866 25.9861 46.0537 25.8354 45.9899C25.6848 45.9261 25.5482 45.8326 25.4335 45.7149C24.9427 45.2149 24.9427 44.4007 25.4335 43.9004ZM28.8937 49.2421C28.403 48.742 28.403 47.9279 28.8937 47.4275L30.6239 45.664C30.7386 45.5463 30.8752 45.4529 31.0259 45.3891C31.1766 45.3253 31.3383 45.2925 31.5016 45.2925C31.665 45.2925 31.8267 45.3253 31.9773 45.3891C32.128 45.4529 32.2647 45.5463 32.3794 45.664C32.8326 46.1261 32.8664 46.855 32.4823 47.3582C32.3766 47.457 32.5339 47.2981 30.6493 49.2421C30.5346 49.3598 30.398 49.4534 30.2473 49.5172C30.0966 49.581 29.9349 49.6139 29.7715 49.6139C29.6082 49.6139 29.4464 49.581 29.2957 49.5172C29.1451 49.4534 29.0083 49.3598 28.8937 49.2421ZM35.8296 50.9952L35.3225 51.5117C35.2079 51.6295 35.0713 51.723 34.9207 51.7868C34.77 51.8506 34.6083 51.8834 34.445 51.8834C34.2816 51.8834 34.1199 51.8506 33.9693 51.7868C33.8186 51.723 33.682 51.6295 33.5674 51.5117C33.1201 51.056 33.0816 50.3403 33.4495 49.8383C34.1089 49.1639 34.0767 49.2037 34.1914 49.0765C34.6819 48.6863 35.3823 48.7249 35.8296 49.1806C36.3205 49.681 36.3201 50.4951 35.8296 50.9952ZM48.4751 42.6869C48.3604 42.8046 48.2237 42.898 48.073 42.9618C47.9224 43.0255 47.7607 43.0584 47.5973 43.0584C47.434 43.0584 47.2723 43.0255 47.1216 42.9618C46.9709 42.898 46.8343 42.8046 46.7196 42.6869L44.4828 40.4068C44.0154 39.9305 43.2547 39.9276 42.7839 40.4005C42.3131 40.8734 42.3103 41.6428 42.7777 42.1191L45.0148 44.3992C45.5057 44.8996 45.5057 45.7137 45.0148 46.2137C44.9002 46.3315 44.7635 46.425 44.6128 46.4888C44.4622 46.5526 44.3004 46.5855 44.1371 46.5855C43.9737 46.5855 43.812 46.5526 43.6613 46.4888C43.5106 46.425 43.374 46.3315 43.2593 46.2137L41.0225 43.9337C40.5549 43.4573 39.7944 43.4544 39.3237 43.9273C38.8529 44.4002 38.8501 45.1699 39.3174 45.6462L41.5542 47.9263C42.0454 48.4267 42.0454 49.2408 41.5542 49.7408C41.4396 49.8586 41.303 49.9521 41.1523 50.0159C41.0016 50.0797 40.8399 50.1126 40.6765 50.1126C40.5132 50.1126 40.3515 50.0797 40.2008 50.0159C40.0501 49.9521 39.9135 49.8586 39.7988 49.7408C37.444 47.3601 37.557 47.4123 37.3199 47.2674C36.708 46.7344 35.95 46.4255 35.1424 46.3837C35.0989 45.4984 34.746 44.6261 34.0845 43.9514C33.745 43.6057 33.3503 43.3367 32.9208 43.1524C33.7354 41.7336 33.5467 39.8764 32.3541 38.661C31.1316 37.4149 29.3029 37.2639 27.9393 38.0719C27.7582 37.6334 27.4948 37.2345 27.1636 36.8974C25.7373 35.4434 23.425 35.4434 21.9983 36.8974L21.8069 37.0927C21.6732 36.7408 21.6047 36.367 21.6051 35.99C21.6051 34.5297 21.0468 33.1566 20.0307 32.1207L17.8959 29.9565L26.584 21.1003L29.216 23.7707C29.804 24.3701 30.5582 24.7388 31.3731 24.8345L26.0054 31.3515C25.5809 31.8674 25.6497 32.6337 26.1592 33.0632C27.3914 34.1023 28.9498 34.5938 30.5472 34.4469C32.1445 34.3001 33.5899 33.5326 34.6181 32.284C35.0482 31.7618 35.7718 31.6044 36.3782 31.9007C37.6161 32.5058 38.9764 32.7268 40.3146 32.554L48.4751 40.872C48.9659 41.3724 48.9659 42.1865 48.4751 42.6869ZM50.4154 32.6218C49.7169 33.3336 49.3325 34.2793 49.3325 35.2845C49.3325 36.1328 49.115 36.9462 48.7091 37.6602L42.8668 31.7055C44.0611 31.0332 45.0405 30.0226 45.6902 28.7699C45.9983 28.1755 45.7719 27.441 45.1844 27.1292C44.597 26.8171 43.8709 27.0462 43.5628 27.6406C42.9109 28.8978 41.792 29.7368 40.5386 30.0476C40.4835 30.0562 40.4288 30.0682 40.3752 30.0846C39.4121 30.2863 38.3796 30.1796 37.4234 29.7122C36.6471 29.3313 35.7671 29.2245 34.9239 29.409C34.0807 29.5934 33.3228 30.0584 32.7713 30.7297C32.1551 31.4775 31.288 31.9381 30.3299 32.0264C29.7853 32.0764 29.2485 32.0027 28.7505 31.8157L34.3112 25.063C34.747 24.9285 35.1987 24.85 35.6542 24.85H39.1392C40.1151 24.85 41.0322 24.4734 41.7219 23.7708L44.418 21.0216L53.1065 29.8776L50.4154 32.6218Z" fill="#54C3BA"/>
</g>
<defs>
<clipPath id="clip0_227_5345">
<rect width="41" height="37" fill="white" transform="translate(15 18)"/>
</clipPath>
</defs>
</svg>
