<svg width="16" height="16" viewBox="0 0 16 16" fill="none" xmlns="http://www.w3.org/2000/svg">
<path fill-rule="evenodd" clip-rule="evenodd" d="M8 0.00146484C5.82667 0.00146484 5.556 0.0107982 4.70133 0.0507982C1.79467 0.184132 0.181333 1.79613 0.048 4.7028C0.00933333 5.55747 0 5.82946 0 8.00146C0 10.1748 0.00933333 10.4468 0.048 11.3001C0.181333 14.2055 1.79467 15.8201 4.70133 15.9535C5.556 15.9921 5.82667 16.0015 8 16.0015C10.1733 16.0015 10.4453 15.9921 11.3 15.9535C14.2013 15.8201 15.8213 14.2081 15.952 11.3001C15.9907 10.4468 16 10.1748 16 8.00146C16 5.82946 15.9907 5.55747 15.952 4.7028C15.8213 1.80013 14.2067 0.182798 11.3 0.0507982C10.4453 0.0107982 10.1733 0.00146484 8 0.00146484ZM8.00007 1.44385C10.1361 1.44385 10.3894 1.45185 11.2334 1.49051C13.4027 1.58918 14.4134 2.61718 14.5134 4.76918C14.5507 5.61318 14.5587 5.86518 14.5587 8.00118C14.5587 10.1372 14.5507 10.3905 14.5134 11.2332C14.4134 13.3838 13.4041 14.4145 11.2334 14.5132C10.3894 14.5505 10.1374 14.5598 8.00007 14.5598C5.86407 14.5598 5.61074 14.5518 4.76807 14.5132C2.59474 14.4132 1.58807 13.3812 1.48807 11.2332C1.45074 10.3905 1.44141 10.1372 1.44141 8.00118C1.44141 5.86518 1.45074 5.61185 1.48807 4.76918C1.58674 2.61585 2.59741 1.58785 4.76807 1.48918C5.61074 1.45051 5.86407 1.44385 8.00007 1.44385ZM3.89258 8.00107C3.89258 5.73173 5.73258 3.89307 8.00058 3.89307C10.2686 3.89307 12.1086 5.73307 12.1086 8.00107C12.1086 10.2704 10.2686 12.1091 8.00058 12.1091C5.73258 12.1091 3.89258 10.2704 3.89258 8.00107ZM8.00065 10.6678C6.52732 10.6678 5.33398 9.47447 5.33398 8.00114C5.33398 6.52914 6.52732 5.33447 8.00065 5.33447C9.47265 5.33447 10.6687 6.52781 10.6687 8.00114C10.6687 9.47447 9.47265 10.6678 8.00065 10.6678ZM11.3086 3.73197C11.3086 3.20131 11.7393 2.77197 12.2686 2.77197C12.8006 2.77197 13.2299 3.20131 13.2299 3.73197C13.2299 4.26264 12.7993 4.69197 12.2686 4.69197C11.7379 4.69197 11.3086 4.26131 11.3086 3.73197Z" fill="white"/>
</svg>
