<svg width="70" height="60" viewBox="0 0 70 60" fill="none" xmlns="http://www.w3.org/2000/svg">
<path d="M69.9832 31.9442L60.3666 9.46391C60.5567 8.95499 60.6662 8.40636 60.6662 7.83247C60.6659 6.59462 60.1739 5.40758 59.2985 4.5324C58.4231 3.65722 57.2359 3.16557 55.9981 3.16557C55.2582 3.16534 54.5289 3.34161 53.8709 3.67975C53.2128 4.0179 52.6449 4.50815 52.2143 5.10981H41.4511C40.9142 3.84266 40.016 2.76171 38.8686 2.00187C37.7212 1.24203 36.3754 0.836963 34.9992 0.837219C33.623 0.837476 32.2774 1.24305 31.1302 2.00332C29.9831 2.76358 29.0853 3.84487 28.5489 5.11222H17.7857C17.2092 4.31153 16.3936 3.71424 15.4563 3.40617C14.5189 3.09811 13.5081 3.09512 12.5689 3.39766C11.6298 3.70019 10.8107 4.29266 10.2294 5.08992C9.64817 5.88719 9.33461 6.84821 9.33381 7.83488C9.33381 8.40877 9.4433 8.95619 9.63339 9.46631L0.0168437 31.9442H0C0 39.2448 6.26946 45.1665 14.0007 45.1665C21.7344 45.1665 28.0002 39.2448 28.0002 31.9442H27.9834L18.8349 10.5563H28.5489C29.0831 11.8159 29.9733 12.8921 31.1103 13.6532V48.2778H17.1108V51.3891C17.1108 55.6674 20.6107 59.1673 24.889 59.1673H45.111C49.3893 59.1673 52.8892 55.6674 52.8892 51.3891V48.2778H38.8885V13.652C40.0249 12.8909 40.915 11.8151 41.4499 10.5563H51.1627L42.001 31.9442L41.9998 31.9454L41.9949 31.9563L42.001 31.9587C42.0094 39.2532 48.274 45.1665 56.0005 45.1665C63.7341 45.1665 70 39.2448 70 31.9442C69.9945 31.9454 69.9887 31.9454 69.9832 31.9442ZM23.7532 31.9442H4.24702L12.6496 12.2997C13.5304 12.5656 14.4701 12.5652 15.3506 12.2985L23.7532 31.9442ZM46.2299 31.9442L54.6458 12.2997C55.5274 12.5677 56.4688 12.5677 57.3504 12.2997L65.7542 31.9442H46.2299Z" fill="white"/>
</svg>
