<svg width="70" height="70" viewBox="0 0 70 70" fill="none" xmlns="http://www.w3.org/2000/svg">
<path d="M61.1621 17.2491C61.1127 16.7028 60.9103 16.1815 60.578 15.745C60.2458 15.3085 59.7972 14.9746 59.2837 14.7816L36.3325 6.17157C36.0713 6.0413 35.7921 5.95086 35.5042 5.90323C34.8654 5.77997 34.2037 5.87877 33.6287 6.18323L10.7154 14.7816C10.202 14.9746 9.75338 15.3085 9.42113 15.745C9.08889 16.1815 8.88645 16.7028 8.83707 17.2491C8.80791 17.5874 6.09541 51.132 33.3575 63.6882C33.8997 64.0472 34.5471 64.2126 35.195 64.1578C35.6675 64.1287 36.1371 63.9828 36.5571 63.7291C63.9096 51.202 61.1942 17.5874 61.1621 17.2491ZM48.775 28.2624L36.2917 41.3145C36.0234 41.5952 35.7018 41.8195 35.3457 41.9742C34.9896 42.129 34.6062 42.2111 34.2179 42.2157H34.1858C33.4123 42.2156 32.6706 41.9082 32.1237 41.3612L26.2904 35.5278C26.0118 35.2588 25.7896 34.9369 25.6368 34.5811C25.4839 34.2252 25.4035 33.8425 25.4001 33.4552C25.3967 33.068 25.4705 32.6839 25.6172 32.3255C25.7638 31.967 25.9804 31.6414 26.2543 31.3675C26.5281 31.0936 26.8538 30.8771 27.2122 30.7304C27.5707 30.5838 27.9547 30.51 28.342 30.5133C28.7293 30.5167 29.112 30.5972 29.4678 30.75C29.8237 30.9029 30.1455 31.1251 30.4146 31.4037L34.1392 35.1282L44.5604 24.2316C44.8226 23.9447 45.1394 23.7132 45.4923 23.5505C45.8452 23.3878 46.227 23.2973 46.6154 23.2842C47.0037 23.2712 47.3908 23.3359 47.7538 23.4745C48.1168 23.6131 48.4485 23.8228 48.7293 24.0914C49.0101 24.36 49.2344 24.682 49.3891 25.0385C49.5437 25.3949 49.6256 25.7787 49.6298 26.1673C49.6341 26.5558 49.5607 26.9413 49.4139 27.3011C49.2671 27.6609 49.0499 27.9877 48.775 28.2624Z" fill="white"/>
</svg>
