<svg width="70" height="70" viewBox="0 0 70 70" fill="none" xmlns="http://www.w3.org/2000/svg">
<path d="M56.607 20.4629L45.0503 18.7836L39.882 8.31166C37.8866 4.2678 32.1142 4.2663 30.1178 8.31152L24.9494 18.7836L13.3928 20.4629C8.93027 21.1112 7.14541 26.6004 10.3755 29.7493L18.738 37.9007L16.764 49.4105C16.0016 53.8546 20.67 57.2487 24.6634 55.1499L34.9999 49.7153L45.3366 55.1499C49.3347 57.2514 53.9965 53.8447 53.2357 49.4105L51.2616 37.9007L59.6242 29.7493C62.8531 26.6015 61.0713 21.1117 56.607 20.4629ZM18.4202 6.44655L15.6296 2.60585C14.8721 1.56351 13.4129 1.33232 12.3705 2.08988C11.328 2.8473 11.097 4.30649 11.8544 5.34897L14.645 9.18967C15.4029 10.2326 16.8623 10.4629 17.9041 9.70564C18.9465 8.94836 19.1776 7.48903 18.4202 6.44655ZM9.15968 40.8662C8.76142 39.6408 7.44537 38.9695 6.21955 39.3682L1.61282 40.8652C0.387278 41.2631 -0.283327 42.5796 0.114798 43.8053C0.513742 45.0331 1.83253 45.701 3.05493 45.3033L7.66179 43.8064C8.88734 43.4084 9.55794 42.0919 9.15968 40.8662ZM57.6294 2.08988C56.5871 1.33232 55.1279 1.56337 54.3703 2.60585L51.5797 6.44655C50.8222 7.48903 51.0534 8.94836 52.0958 9.70564C53.1387 10.4633 54.5977 10.2317 55.3549 9.18967L58.1455 5.34897C58.9031 4.30649 58.6719 2.8473 57.6294 2.08988ZM68.3871 40.8652L63.7802 39.3682C62.5547 38.9693 61.2383 39.6407 60.8401 40.8662C60.4418 42.0918 61.1124 43.4081 62.3381 43.8064L66.945 45.3033C68.1681 45.7012 69.4863 45.0325 69.8851 43.8053C70.2832 42.5797 69.6126 41.2634 68.3871 40.8652ZM34.9999 58.9538C33.7113 58.9538 32.6666 59.9985 32.6666 61.2871V66.0227C32.6666 67.3113 33.7113 68.356 34.9999 68.356C36.2885 68.356 37.3331 67.3113 37.3331 66.0227V61.2871C37.3333 59.9985 36.2886 58.9538 34.9999 58.9538Z" fill="white"/>
</svg>
