<svg width="62" height="62" viewBox="0 0 62 62" fill="none" xmlns="http://www.w3.org/2000/svg">
<path d="M49.1989 10.919H45.5589C44.553 10.919 43.7389 11.733 43.7389 12.739C43.7389 13.745 44.5529 14.5591 45.5589 14.5591H49.1989C50.2048 14.5591 51.0189 13.7451 51.0189 12.739C51.0188 11.733 50.2048 10.919 49.1989 10.919ZM30.8072 4.64503L28.9873 1.00508C28.5342 0.105718 27.4446 -0.255019 26.5452 0.191089C25.6458 0.640709 25.2815 1.73382 25.7312 2.63318L27.5512 6.27313C28.0003 7.16886 29.0879 7.53686 29.9933 7.08712C30.8925 6.6375 31.2568 5.54439 30.8072 4.64503ZM42.733 0.191089C41.8371 -0.255019 40.7406 0.105839 40.2909 1.00508L38.4709 4.64503C38.0212 5.54439 38.3856 6.63738 39.2848 7.08712C39.7167 7.30268 40.2164 7.33802 40.6743 7.1854C41.1322 7.03278 41.5108 6.70467 41.7269 6.27313L43.547 2.63318C43.9966 1.73382 43.6322 0.640709 42.733 0.191089ZM23.7191 10.919H20.0792C19.0732 10.919 18.2591 11.733 18.2591 12.739C18.2591 13.745 19.0731 14.5591 20.0792 14.5591H23.7191C24.725 14.5591 25.5392 13.7451 25.5392 12.739C25.5392 11.733 24.725 10.919 23.7191 10.919ZM12.7993 29.2402H5.51925C4.51418 29.2402 3.69922 30.055 3.69922 31.0602V60.1798C3.69922 61.1849 4.51406 61.9999 5.51925 61.9999H12.7992C13.8042 61.9999 14.6192 61.185 14.6192 60.1798V31.0601C14.6192 30.055 13.8045 29.2402 12.7993 29.2402ZM58.2626 34.0646C57.9416 31.2413 55.3043 29.2402 52.4628 29.2402H38.2737C39.4796 27.081 40.1268 20.9739 40.0981 18.4791C40.0505 14.3496 36.6307 11.0403 32.5011 11.0403H30.9993C29.9933 11.0403 29.1792 11.8543 29.1792 12.8604C29.1792 17.069 27.5405 24.6654 24.4498 27.7562C22.3695 29.8365 20.5912 30.5903 18.2593 31.7557V59.0644C21.8295 60.2544 26.3625 62 33.2717 62H45.1771C49.1 62 52.1551 58.3668 50.6351 54.5282C52.951 53.8973 54.6589 51.7733 54.6589 49.2601C54.6589 48.5509 54.522 47.872 54.275 47.2481C58.1777 46.1848 59.6143 41.3659 56.9055 38.3401C57.9007 37.2284 58.4495 35.7077 58.2626 34.0646Z" fill="white"/>
</svg>
