<svg width="16" height="13" viewBox="0 0 16 13" fill="none" xmlns="http://www.w3.org/2000/svg">
<path d="M16 1.54146C15.412 1.8028 14.7787 1.9788 14.1147 2.0588C14.7933 1.65213 15.312 1.00946 15.5587 0.242798C14.924 0.618798 14.2213 0.892132 13.4733 1.0388C12.876 0.400132 12.0213 0.00146484 11.0787 0.00146484C8.95867 0.00146484 7.40133 1.9788 7.88 4.03213C5.15333 3.8948 2.73333 2.58813 1.11467 0.602798C0.254667 2.07746 0.669333 4.00813 2.13067 4.98547C1.59333 4.96813 1.088 4.82013 0.645333 4.5748C0.609333 6.0948 1.7 7.51747 3.27867 7.8348C2.81733 7.96013 2.31067 7.98946 1.796 7.8908C2.21333 9.1948 3.428 10.1428 4.86267 10.1695C3.48 11.2521 1.74267 11.7361 0 11.5308C1.45333 12.4628 3.17733 13.0055 5.03067 13.0055C11.1267 13.0055 14.5693 7.85746 14.3613 3.24013C15.004 2.7788 15.56 2.20013 16 1.54146Z" fill="white"/>
</svg>
